HIERARCHY
ROOT Hips
{
 OFFSET 0.000000 0.000000 0.000000
 CHANNELS 6 Xposition Yposition Zposition Yrotation Xrotation Zrotation
 JOINT Chest
 {
  OFFSET 0.000000 9.585900 0.002600
  CHANNELS 3 Yrotation Xrotation Zrotation
  JOINT Chest2
  {
   OFFSET 0.000000 9.601200 -0.005300
   CHANNELS 3 Yrotation Xrotation Zrotation
   JOINT Chest3
   {
    OFFSET 0.000000 9.561800 0.000000
    CHANNELS 3 Yrotation Xrotation Zrotation
    JOINT Chest4
    {
     OFFSET 0.000000 9.552100 0.000000
     CHANNELS 3 Yrotation Xrotation Zrotation
     JOINT Neck
     {
      OFFSET 0.000000 14.453000 0.000000
      CHANNELS 3 Yrotation Xrotation Zrotation
      JOINT Head
      {
       OFFSET 0.000000 8.936500 -0.011300
       CHANNELS 3 Yrotation Xrotation Zrotation
       End Site
       {
        OFFSET 0.000000 17.073600 -0.006000
       }
      }
     }
     JOINT RightCollar
     {
      OFFSET -2.921100 9.558500 0.000000
      CHANNELS 3 Yrotation Xrotation Zrotation
      JOINT RightShoulder
      {
       OFFSET -13.519700 0.000000 0.000000
       CHANNELS 3 Yrotation Xrotation Zrotation
       JOINT RightElbow
       {
        OFFSET 0.000000 -29.696600 0.000000
        CHANNELS 3 Yrotation Xrotation Zrotation
        JOINT RightWrist
        {
         OFFSET 0.000000 -24.004700 0.000000
         CHANNELS 3 Yrotation Xrotation Zrotation
         End Site
         {
          OFFSET 0.000000 -17.728500 0.000000
         }
        }
       }
      }
     }
     JOINT LeftCollar
     {
      OFFSET 2.921100 9.558500 0.000000
      CHANNELS 3 Yrotation Xrotation Zrotation
      JOINT LeftShoulder
      {
       OFFSET 13.519700 0.000000 0.000000
       CHANNELS 3 Yrotation Xrotation Zrotation
       JOINT LeftElbow
       {
        OFFSET 0.000000 -29.696600 0.000000
        CHANNELS 3 Yrotation Xrotation Zrotation
        JOINT LeftWrist
        {
         OFFSET 0.000000 -24.004700 0.000000
         CHANNELS 3 Yrotation Xrotation Zrotation
         End Site
         {
          OFFSET 0.000000 -17.728500 0.000000
         }
        }
       }
      }
     }
    }
   }
  }
 }
 JOINT RightHip
 {
  OFFSET -7.771700 -0.012900 -0.001300
  CHANNELS 3 Yrotation Xrotation Zrotation
  JOINT RightKnee
  {
   OFFSET 0.000000 -40.869800 0.001200
   CHANNELS 3 Yrotation Xrotation Zrotation
   JOINT RightAnkle
   {
    OFFSET 0.000000 -39.717900 0.002100
    CHANNELS 3 Yrotation Xrotation Zrotation
    JOINT RightToe
    {
     OFFSET 0.000000 -4.965400 11.033500
     CHANNELS 3 Yrotation Xrotation Zrotation
     End Site
     {
      OFFSET 0.000000 -1.423100 5.872300
     }
    }
   }
  }
 }
 JOINT LeftHip
 {
  OFFSET 7.771700 -0.012900 -0.001300
  CHANNELS 3 Yrotation Xrotation Zrotation
  JOINT LeftKnee
  {
   OFFSET 0.000000 -40.869800 0.001200
   CHANNELS 3 Yrotation Xrotation Zrotation
   JOINT LeftAnkle
   {
    OFFSET 0.000000 -39.717900 0.002100
    CHANNELS 3 Yrotation Xrotation Zrotation
    JOINT LeftToe
    {
     OFFSET 0.000000 -4.965400 11.033500
     CHANNELS 3 Yrotation Xrotation Zrotation
     End Site
     {
      OFFSET 0.000000 -1.423100 5.872300
     }
    }
   }
  }
 }
}
MOTION
Frames: 8
Frame Time: 0.008333
-37.736127 52.110472 23.425104 179.945043 -26.891166 0.287537 2.790506 25.497750 -1.502197 0.500213 4.138056 -0.266160 0.752215 6.590327 -0.399359 2.439977 21.019549 -1.014392 7.847591 22.699395 -6.479818 10.268855 -0.550660 -9.087246 10.612256 8.785590 12.692404 67.172202 -3.717333 -55.275255 154.622827 -36.598189 -179.152120 -2.684354 -13.624582 -0.683170 -12.544998 14.834957 -18.317488 -26.841768 -14.684179 50.351796 115.637182 -42.521779 -52.423007 22.362248 -11.070733 12.900844 -7.996281 -54.921780 -1.249128 -53.943656 82.827346 -61.938619 -3.951197 -7.067866 8.824991 0.163994 -0.328976 0.130494 2.511277 -53.818398 -3.986380 40.840238 83.976412 46.068633 -0.789836 -10.314299 -2.135779 0.067887 0.287259 0.036468
-37.729507 52.100206 23.417335 179.965185 -26.906333 0.292250 2.803492 25.515770 -1.504942 0.502431 4.140788 -0.266618 0.756097 6.599116 -0.401381 2.428086 21.015289 -1.008165 7.772665 22.686479 -6.529886 10.188254 -0.586127 -9.083836 10.630783 8.784790 12.675647 67.171241 -3.725450 -55.259641 154.567022 -36.591626 -179.122540 -2.700956 -13.650578 -0.647277 -12.500880 14.811860 -18.347600 -26.903807 -14.586396 50.301055 115.580581 -42.606178 -52.467486 22.365235 -11.045495 12.775806 -8.005549 -54.923579 -1.251725 -54.231518 82.840182 -62.241039 -3.954466 -7.109744 8.829667 0.157501 -0.312107 0.119827 2.517230 -53.805266 -4.004374 40.886846 83.984852 46.115239 -0.788909 -10.331795 -2.132138 0.064146 0.300008 0.032842
-37.723205 52.089501 23.411627 179.967009 -26.915050 0.304178 2.835199 25.524419 -1.506395 0.504872 4.143402 -0.266989 0.797691 6.610211 -0.409282 2.401819 21.016597 -0.994417 7.713967 22.665156 -6.529513 10.039908 -0.628542 -9.103562 10.670231 8.785314 12.640791 67.136500 -3.773765 -55.248571 154.502593 -36.567053 -179.079948 -2.689543 -13.695760 -0.623327 -12.471522 14.785136 -18.362624 -26.965698 -14.495359 50.263205 115.522721 -42.682412 -52.508083 22.367364 -11.028109 12.645689 -8.044992 -54.951613 -1.193986 -54.704608 82.839993 -62.762489 -3.978907 -7.101981 8.830012 0.183167 -0.335688 0.126306 2.527344 -53.797915 -4.015903 40.976568 83.988949 46.203277 -0.792270 -10.351637 -2.134453 0.061884 0.314150 0.030691
-37.717523 52.078506 23.407777 179.985857 -26.918794 0.308926 2.842865 25.527833 -1.511810 0.516250 4.145786 -0.267896 0.802131 6.614354 -0.410000 2.412124 21.018492 -0.992046 7.647322 22.647483 -6.527893 9.846922 -0.686346 -9.123060 10.672524 8.783233 12.634238 67.121698 -3.797833 -55.240078 154.458118 -36.565132 -179.057797 -2.687166 -13.702567 -0.620642 -12.472384 14.772011 -18.359432 -27.008701 -14.431974 50.224448 115.521242 -42.743141 -52.546944 22.345718 -10.988068 12.490251 -8.067071 -54.969979 -1.180771 -55.023199 82.840918 -63.104602 -3.972598 -7.128189 8.830642 0.178915 -0.325828 0.131628 2.504159 -53.802812 -4.016049 41.040639 83.995947 46.254907 -0.785151 -10.349925 -2.139855 0.054559 0.313678 0.030789
-37.714413 52.068757 23.402874 -179.986924 -26.936960 0.322436 2.816974 25.546935 -1.536475 0.544814 4.147033 -0.269006 0.806490 6.618518 -0.411004 2.476255 21.033331 -1.008793 7.390050 22.574881 -6.584603 9.740174 -0.749373 -9.103878 10.632755 8.761132 12.656960 67.086576 -3.840303 -55.235729 154.327422 -36.516773 -178.961802 -2.652072 -13.732904 -0.650469 -12.503469 14.739661 -18.327729 -27.064559 -14.351398 50.201880 115.438225 -42.812680 -52.572745 22.373918 -11.021440 12.359641 -8.071078 -54.975542 -1.198157 -55.377673 82.843947 -63.478255 -3.978698 -7.165398 8.828206 0.188066 -0.312716 0.132519 2.501248 -53.788210 -4.047444 41.068284 84.001648 46.276608 -0.781110 -10.353664 -2.142566 0.051548 0.318123 0.029506
-37.710432 52.058801 23.399839 -179.972407 -26.949506 0.334506 2.833742 25.559519 -1.541315 0.548029 4.147706 -0.267578 0.810396 6.622274 -0.412109 2.487887 21.037355 -1.010307 7.170697 22.514926 -6.654419 9.562177 -0.825427 -9.104104 10.638415 8.754660 12.644800 67.060771 -3.870810 -55.225729 154.222885 -36.493509 -178.897640 -2.555764 -13.767933 -0.693817 -12.482098 14.696575 -18.343288 -27.133418 -14.255329 50.192087 115.357190 -42.881447 -52.601379 22.407764 -11.073636 12.228340 -8.073215 -54.986406 -1.200936 -55.741708 82.837558 -63.860405 -3.979587 -7.196533 8.832815 0.186411 -0.312037 0.118981 2.508098 -53.778017 -4.073213 41.079694 84.004461 46.287324 -0.776932 -10.359729 -2.144747 0.047187 0.325747 0.026800
-37.708507 52.050824 23.394584 -179.934242 -26.983659 0.347152 2.823745 25.592879 -1.554944 0.552579 4.148481 -0.267384 0.813727 6.626316 -0.413331 2.497386 21.041858 -1.012373 6.946236 22.453914 -6.714855 9.317798 -0.917606 -9.112608 10.646338 8.745456 12.631624 67.029435 -3.901389 -55.212007 154.003077 -36.447374 -178.752062 -2.534591 -13.780249 -0.765684 -12.480752 14.667457 -18.339966 -27.186222 -14.194402 50.178435 115.300829 -42.942616 -52.629030 22.427637 -11.124421 12.085500 -8.077864 -54.976610 -1.225050 -56.220961 82.826199 -64.365227 -3.969885 -7.237405 8.847113 0.189357 -0.308169 0.114870 2.493044 -53.744931 -4.107884 41.128284 84.000332 46.326855 -0.776734 -10.362086 -2.149070 0.041976 0.331270 0.025714
-37.704987 52.042064 23.392674 -179.914886 -27.001171 0.358700 2.878014 25.604098 -1.535911 0.517193 4.157519 -0.270787 0.816958 6.631154 -0.414795 2.506203 21.047449 -1.015291 6.689140 22.383170 -6.784032 9.038540 -1.023502 -9.122408 10.654901 8.728709 12.615983 66.994943 -3.927872 -55.194451 153.741096 -36.391643 -178.579527 -2.499315 -13.795049 -0.861771 -12.460895 14.625789 -18.346170 -27.254916 -14.120458 50.181095 115.243166 -43.005725 -52.658827 22.443399 -11.172476 11.960550 -8.084473 -54.981699 -1.227596 -56.559884 82.822592 -64.725067 -3.978415 -7.268101 8.851744 0.195672 -0.304054 0.114892 2.485500 -53.728145 -4.132131 41.117794 83.999792 46.310547 -0.759288 -10.367796 -2.151925 0.030711 0.340427 0.021018
